<svg width="163" height="33" viewBox="0 0 163 33" fill="none" xmlns="http://www.w3.org/2000/svg">
<path d="M8.27264 14.8746C8.27264 17.9937 6.42075 20.5223 4.13632 20.5223C1.85189 20.5223 0 17.9937 0 14.8746C0 11.7555 1.85189 9.22693 4.13632 9.22693C6.42075 9.22693 8.27264 11.7555 8.27264 14.8746Z" fill="#FF4081"/>
<path d="M34.9999 14.8746C34.9999 17.9937 33.148 20.5223 30.8636 20.5223C28.5792 20.5223 26.7273 17.9937 26.7273 14.8746C26.7273 11.7555 28.5792 9.22693 30.8636 9.22693C33.148 9.22693 34.9999 11.7555 34.9999 14.8746Z" fill="#FF4081"/>
<path d="M16.8635 6.36358C16.8635 9.87809 14.7623 12.7272 12.1704 12.7272C9.57842 12.7272 7.47723 9.87809 7.47723 6.36358C7.47723 2.84907 9.57842 0 12.1704 0C14.7623 0 16.8635 2.84907 16.8635 6.36358Z" fill="#FF4081"/>
<path d="M27.5226 6.36358C27.5226 9.87809 25.4214 12.7272 22.8294 12.7272C20.2375 12.7272 18.1363 9.87809 18.1363 6.36358C18.1363 2.84907 20.2375 0 22.8294 0C25.4214 0 27.5226 2.84907 27.5226 6.36358Z" fill="#FF4081"/>
<path d="M20.9203 31.9362C18.5021 31.0771 15.9885 31.3926 15.034 31.6578C14.7688 31.6975 14.0556 31.8487 13.3238 32.135C12.409 32.493 11.0965 32.9702 9.06814 32.8111C6.80112 32.6123 4.6932 29.5896 4.05684 27.3623C3.42049 25.1351 4.85229 22.7885 6.28409 21.9533C7.7159 21.1181 8.47157 20.2033 8.78975 19.7658C9.10793 19.3283 9.42611 18.4136 9.74428 18.0158C11.8522 15.3113 13.3636 14.4761 14.1192 14.0784C14.8749 13.6806 16.4658 12.6863 19.7669 13.6011C23.068 14.5159 25.2157 18.0158 25.693 18.9704C26.1702 19.9249 26.8066 20.6806 27.4827 21.1578C28.1589 21.6351 29.0339 21.9135 30.0679 23.226C31.102 24.5385 31.4997 27.2828 29.8691 29.7089C28.2384 32.135 26.1305 32.8509 25.2157 32.8907C24.301 32.9305 23.943 33.01 20.9203 31.9362Z" fill="#FF4081"/>
<path d="M138.303 1.99524H148.035L150.458 12.1749H150.789L153.249 1.99524H162.981L155.049 23.0487V30.9148H146.235V23.0487L138.303 1.99524Z" fill="#FF4081"/>
<path d="M138.086 23.5114V30.9148H120.459V1.99524H129.272V23.5114H138.086Z" fill="#FF4081"/>
<path d="M118.04 23.5114V30.9148H100.413V1.99524H109.226V23.5114H118.04Z" fill="#FF4081"/>
<path d="M94.6933 13.2931V20.0025H85.8798V23.5114H96.6764V30.9148H77.0662V1.99524H96.4561L95.3544 9.39864H85.8798V13.2931H94.6933Z" fill="#FF4081"/>
<path d="M73.7598 23.5114V30.9148H49.9999V25.1309L61.2739 9.66856L61.1638 9.39864H51.9095L51.1016 1.99524H73.5762V7.77915L62.4124 23.2415L62.5593 23.5114H73.7598Z" fill="#FF4081"/>
</svg>
