<svg width="826" height="960" viewBox="0 0 826 960" fill="none" xmlns="http://www.w3.org/2000/svg">
<path d="M642.685 444.941C638.55 442.959 634.35 441.052 630.095 439.225C622.685 302.691 548.08 224.525 422.809 223.725C422.242 223.721 421.677 223.721 421.11 223.721C346.182 223.721 283.866 255.704 245.51 313.904L314.405 361.164C343.058 317.692 388.026 308.424 421.143 308.424C421.526 308.424 421.91 308.424 422.288 308.427C463.535 308.69 494.66 320.683 514.805 344.07C529.465 361.097 539.27 384.625 544.125 414.319C507.555 408.103 468.005 406.192 425.725 408.616C306.623 415.477 230.055 484.94 235.198 581.46C237.807 630.42 262.199 672.54 303.875 700.055C339.112 723.315 384.495 734.69 431.661 732.115C493.95 728.7 542.815 704.935 576.905 661.48C602.795 628.48 619.17 585.715 626.4 531.83C656.085 549.745 678.085 573.32 690.235 601.66C710.895 649.835 712.1 729 647.505 793.54C590.91 850.08 522.88 874.54 420.067 875.295C306.021 874.45 219.769 837.875 163.69 766.585C111.177 699.83 84.0385 603.41 83.026 480C84.0385 356.589 111.177 260.168 163.69 193.414C219.769 122.125 306.02 85.55 420.066 84.7025C534.94 85.5565 622.695 122.307 680.92 193.94C709.47 229.068 730.995 273.244 745.185 324.752L825.92 303.211C808.72 239.811 781.655 185.178 744.825 139.87C670.18 48.0334 561.01 0.97574 420.348 0H419.785C279.408 0.97235 171.46 48.209 98.9415 140.396C34.4095 222.432 1.122 336.579 0.00349998 479.663L0 480L0.00349998 480.337C1.122 623.42 34.4095 737.57 98.9415 819.605C171.46 911.79 279.408 959.03 419.785 960H420.348C545.15 959.135 633.12 926.46 705.59 854.055C800.405 759.33 797.55 640.595 766.3 567.705C743.88 515.435 701.135 472.981 642.685 444.941ZM427.202 647.535C375.003 650.475 320.772 627.045 318.098 576.86C316.116 539.65 344.579 498.13 430.406 493.184C440.235 492.617 449.88 492.34 459.355 492.34C490.53 492.34 519.695 495.368 546.21 501.165C536.32 624.675 478.31 644.73 427.202 647.535Z" fill="black"/>
</svg>
