<svg width="113" height="29" viewBox="0 0 113 29" fill="none" xmlns="http://www.w3.org/2000/svg">
<path d="M88.303 0H98.0347L100.458 10.1797H100.789L103.249 0H112.981L105.049 21.0534V28.9195H96.2353V21.0534L88.303 0Z" fill="#FF4081"/>
<path d="M88.0859 21.5161V28.9195H70.4588V0H79.2724V21.5161H88.0859Z" fill="#FF4081"/>
<path d="M68.0398 21.5161V28.9195H50.4127V0H59.2263V21.5161H68.0398Z" fill="#FF4081"/>
<path d="M44.6934 11.2979V18.0072H35.8798V21.5161H46.6765V28.9195H27.0663V0H46.4561L45.3544 7.4034H35.8798V11.2979H44.6934Z" fill="#FF4081"/>
<path d="M23.7599 21.5161V28.9195H0V23.1356L11.274 7.67332L11.1638 7.4034H1.9096L1.10169 0H23.5763V5.78391L12.4124 21.2462L12.5593 21.5161H23.7599Z" fill="#FF4081"/>
</svg>
